<svg aria-hidden="true" style="position: absolute; width: 0; height: 0; overflow: hidden;" version="1.1" xmlns="http://www.w3.org/2000/svg" xmlns:xlink="http://www.w3.org/1999/xlink">
<defs>
<symbol id="iconproblems-flame" viewBox="0 0 28 32">
<path d="M28.731 21.831c-0.373-0.836-0.887-1.659-1.639-2.609-1.896-2.386-2.474-7.706-2.481-7.757-0.026-0.255-0.206-0.466-0.443-0.542-0.059-0.019-0.127-0.031-0.197-0.031-0.192 0-0.364 0.083-0.484 0.215l-0 0.001c-2.262 2.533-1.311 6.443-0.797 8.006 0.141 0.427 0.296 0.931 0.405 1.442 0.835 4.127-0.778 5.996-1.157 6.373-0.366 0.102-0.617 0.051-0.848-0.198-0.797-0.874-1.060-3.738-0.688-7.47 0.077-0.759 0.058-1.442-0.051-2.080-0.786-4.587-3.668-7.529-4.402-8.561-2.018-2.985-2.224-7.955-2.23-7.999-0.006-0.236-0.141-0.447-0.353-0.549-0.206-0.102-0.456-0.089-0.649 0.045-3.368 2.29-3.078 7.808-2.609 10.889 0.109 0.714 0.321 1.442 0.688 2.36 1.305 3.285-0.257 7.527-0.27 7.566s-0.026 0.070-0.032 0.108c-0.199 1.046-0.533 1.671-0.906 1.671-0.039 0-0.077-0.006-0.122-0.019-0.456-0.096-0.694-0.581-0.7-1.002-0.026-5.441-5.482-7.272-5.54-7.291-0.244-0.077-0.514-0.006-0.681 0.191-0.174 0.198-0.206 0.472-0.090 0.702 0.064 0.134 0.27 0.721 0.129 2.794-0.122 1.863-0.463 3.706-1.009 5.473-1.298 4.236-1.093 8.248-1.080 8.439 0.998 10.864 16.609 12.768 25.873 6.647 1.015-0.67 1.844-1.435 2.455-2.277 3.419-4.721 1.407-11.131-0.090-14.538zM4.985 32.21c0.019 0.351-0.251 0.651-0.604 0.67h-0.039c-0.341 0-0.623-0.262-0.643-0.6-0.058-0.931-0.045-1.907 0.026-2.966 0.026-0.351 0.334-0.612 0.688-0.593 0.353 0.026 0.623 0.332 0.598 0.683-0.071 1.008-0.084 1.927-0.026 2.807zM5.3 26.558c-0.039 0.325-0.315 0.561-0.636 0.561-0.026 0-0.051 0-0.084-0.006-0.347-0.045-0.598-0.357-0.559-0.708l0.308-2.462c0.045-0.344 0.36-0.593 0.72-0.555 0.354 0.045 0.604 0.364 0.559 0.714l-0.308 2.456zM24.384 8.727c-0.351-0.054-0.591-0.379-0.537-0.727 0.040-0.259 0.272-1.586 0.902-2.253 0.243-0.257 0.649-0.271 0.908-0.029 0.125 0.116 0.203 0.282 0.203 0.465 0 0.169-0.066 0.323-0.174 0.437l0-0c-0.267 0.283-0.494 1.091-0.57 1.575-0.054 0.344-0.378 0.586-0.733 0.533zM0.955 11.905c-0.123-0.474-0.429-1.257-0.722-1.512-0.267-0.232-0.294-0.635-0.060-0.9s0.639-0.292 0.907-0.059c0.693 0.603 1.054 1.901 1.12 2.154 0.088 0.341-0.119 0.688-0.463 0.776-0.351 0.088-0.695-0.123-0.783-0.459z"></path>
</symbol>
</defs>
</svg>
