<svg width="85" height="6" fill="none" xmlns="http://www.w3.org/2000/svg"><path d="M3.171 4.397H1.405l-.337.815H.166l1.696-3.804h.87l1.7 3.804h-.924l-.337-.815zm-.277-.669l-.603-1.456-.603 1.456h1.206zM9.87 4.495V6h-.814v-.788H6.37V6h-.815l.005-1.505h.152c.228-.008.39-.174.484-.5.094-.326.152-.792.174-1.397l.043-1.19h2.924v3.087h.533zM7.149 2.679a8.052 8.052 0 01-.114 1.142c-.058.304-.147.529-.266.674h1.7v-2.37H7.165l-.016.554zM13.24 5.277a2.22 2.22 0 01-1.054-.25 1.938 1.938 0 01-.739-.7c-.177-.302-.266-.64-.266-1.017 0-.377.089-.714.266-1.011.181-.3.428-.534.74-.701.315-.17.668-.256 1.06-.256.329 0 .626.058.89.174.269.116.493.283.674.5l-.565.522a1.215 1.215 0 00-.956-.446c-.236 0-.446.053-.63.158-.186.101-.33.245-.436.43a1.289 1.289 0 00-.152.63c0 .235.051.445.152.63.105.185.25.33.435.435.185.101.395.152.63.152.381 0 .7-.15.957-.45l.565.52c-.18.222-.405.39-.674.506a2.237 2.237 0 01-.896.174zM17.836 3.68h-.608v1.532h-.875V1.408h.875v1.538h.63l1-1.538h.93l-1.245 1.837 1.282 1.967h-1l-.989-1.533zM21.216 1.408h.875v2.478l1.815-2.478h.827v3.804h-.87V2.739l-1.815 2.473h-.832V1.408zM26.658 1.408h.875v2.478l1.815-2.478h.826v3.804h-.87V2.739L27.49 5.212h-.832V1.408zm1.755-.245c-.695 0-1.047-.277-1.054-.831h.603c.008.264.158.396.451.396.145 0 .256-.032.332-.098.076-.068.116-.168.12-.298h.603c-.004.271-.093.478-.267.62-.174.14-.436.211-.788.211zM37.193 4.397h-1.766l-.337.815h-.902l1.695-3.804h.87l1.701 3.804h-.924l-.337-.815zm-.277-.669l-.603-1.456-.603 1.456h1.206zM43.426 1.408v3.804h-.88v-1.56h-1.729v1.56h-.88V1.408h.88v1.5h1.729v-1.5h.88zM48.037 2.125h-1.81l.006 3.087h-.875V1.408h2.684l-.005.717zM52.476 1.408v3.804h-.87V2.125h-1.304l-.027.793a8.16 8.16 0 01-.13 1.316c-.07.333-.185.59-.348.771-.16.178-.384.267-.674.267-.12 0-.264-.02-.435-.06l.055-.745c.047.015.1.022.157.022.21 0 .357-.123.44-.37.084-.25.136-.639.158-1.168l.054-1.543h2.924zM54.405 1.408h.875v2.478l1.815-2.478h.826v3.804h-.87V2.739l-1.815 2.473h-.831V1.408zM59.846 1.408h.876v2.478l1.815-2.478h.826v3.804h-.87V2.739l-1.815 2.473h-.831V1.408zm1.756-.245c-.696 0-1.047-.277-1.054-.831h.603c.007.264.157.396.45.396.146 0 .256-.032.332-.098.077-.068.116-.168.12-.298h.603c-.003.271-.092.478-.266.62-.174.14-.437.211-.788.211zM67.087 5.277a2.22 2.22 0 01-1.054-.25 1.938 1.938 0 01-.74-.7c-.177-.302-.266-.64-.266-1.017a1.885 1.885 0 011.005-1.712c.316-.17.67-.256 1.06-.256.33 0 .627.058.892.174.268.116.493.283.674.5l-.565.522a1.215 1.215 0 00-.957-.446c-.235 0-.445.053-.63.158-.185.101-.33.245-.435.43a1.289 1.289 0 00-.152.63c0 .235.05.445.152.63.105.185.25.33.435.435.184.101.395.152.63.152.38 0 .7-.15.957-.45l.565.52c-.181.222-.406.39-.674.506a2.237 2.237 0 01-.897.174zM71.683 3.68h-.609v1.532H70.2V1.408h.875v1.538h.63l1-1.538h.93l-1.245 1.837 1.283 1.967h-1l-.99-1.533zM75.063 1.408h.875v2.478l1.815-2.478h.826v3.804h-.87V2.739l-1.815 2.473h-.831V1.408zM80.504 1.408h.875v2.478l1.816-2.478h.826v3.804h-.87V2.739l-1.815 2.473h-.832V1.408zm1.756-.245c-.696 0-1.047-.277-1.055-.831h.604c.007.264.157.396.45.396.146 0 .256-.032.332-.098.077-.068.116-.168.12-.298h.603c-.003.271-.092.478-.266.62-.174.14-.437.211-.788.211z" fill="#111518"/></svg>