<svg width="48" height="47" viewBox="0 0 48 47" fill="none" xmlns="http://www.w3.org/2000/svg">
<g clip-path="url(#clip0)">
<path d="M44.3196 -0.187988H21.1926C19.6871 -0.187988 18.4624 1.0367 18.4624 2.54224V12.1155L1.28109 19.3269C1.08657 19.4085 0.954339 19.5921 0.939403 19.8026C0.924468 20.0132 1.02865 20.2142 1.20969 20.3228L3.4008 21.6342V35.6091C2.28034 35.8646 1.43955 36.8674 1.43955 38.0673V39.4143C1.43955 39.7233 1.69017 39.9739 1.99907 39.9739H5.92266C6.23157 39.9739 6.48219 39.7233 6.48219 39.4143V38.0673C6.48219 36.869 5.64126 35.8675 4.51985 35.6104V22.304L6.25233 23.3409C6.19906 23.7404 6.24558 22.6446 6.22756 29.8471C6.22756 32.2147 12.292 33.483 18.4624 33.5557V44.4617C18.4624 45.0251 18.6349 45.549 18.9298 45.9838C19.4205 46.7097 20.251 47.1879 21.1912 47.1879H44.3182C45.8223 47.1879 47.0458 45.964 47.0458 44.4603C47.0458 44.535 47.0428 42.1501 47.0458 2.5426C47.0458 1.0575 45.8179 -0.187988 44.3196 -0.187988ZM5.36314 38.0673V38.8548H2.5586V38.0673C2.5586 37.2921 3.18624 36.6612 3.95741 36.6612C4.73258 36.6612 5.36314 37.2921 5.36314 38.0673ZM44.3196 46.066H21.1926C20.6377 46.066 20.1475 45.7851 19.8576 45.3587C19.684 45.102 19.5825 44.7927 19.5825 44.4603V40.6798H45.9239V44.4617C45.9239 45.3381 45.1936 46.066 44.3196 46.066ZM45.9239 39.5608H19.5815V33.559C22.5942 33.5245 31.8236 32.861 31.8236 29.8471C31.8203 25.3225 31.8316 23.4877 31.8094 23.3324L36.8338 20.3228C37.0149 20.2142 37.119 20.0132 37.1041 19.8026C37.0892 19.5921 36.9569 19.4085 36.7624 19.3269L19.5815 12.1153V7.44208H45.9239V39.5608ZM19.0219 26.1322C15.9183 26.1322 9.94263 26.533 7.34661 28.2282C7.36308 23.0432 7.16671 23.3809 7.80523 22.9412C9.41786 21.7537 14.0303 20.9246 19.0219 20.9246C21.1991 20.9246 30.7045 21.5231 30.7045 23.5357V28.229C28.0842 26.518 22.1388 26.1322 19.0219 26.1322ZM19.5825 2.5426C19.5825 1.6556 20.3042 0.933974 21.1912 0.933974H44.3182C45.206 0.933974 45.9239 1.66572 45.9239 2.54224V6.32303H19.5825V2.5426ZM19.0219 13.0941L35.3104 19.9308L31.2744 22.3461C29.1287 20.2182 22.0307 19.8055 19.0219 19.8055C16.0092 19.8055 8.91075 20.2194 6.7696 22.3467L2.73236 19.9308L19.0219 13.0941ZM7.34661 29.8471C7.34661 28.9415 11.3565 27.2513 19.0219 27.2513C26.6921 27.2513 30.7045 28.9415 30.7045 29.8471C30.7045 30.7534 26.6921 32.4436 19.0219 32.4436C11.3565 32.4436 7.34661 30.7534 7.34661 29.8471Z" fill="#FF6B09"/>
<path d="M32.7548 41.5235C31.7345 41.5235 30.9043 42.3533 30.9043 43.374C30.9043 44.3947 31.7345 45.2252 32.7548 45.2252C33.7755 45.2252 34.6057 44.3947 34.6057 43.374C34.6057 42.3533 33.7755 41.5235 32.7548 41.5235ZM32.7548 44.1062C32.3516 44.1062 32.0233 43.7776 32.0233 43.374C32.0233 42.9704 32.3516 42.6425 32.7548 42.6425C33.1584 42.6425 33.4866 42.9704 33.4866 43.374C33.4866 43.7776 33.1584 44.1062 32.7548 44.1062Z" fill="#FF6B09"/>
<path d="M34.8892 3.06898H30.6206V4.18803H34.8892V3.06898Z" fill="#FF6B09"/>
</g>
<defs>
<clipPath id="clip0">
<rect width="48" height="47" fill="white"/>
</clipPath>
</defs>
</svg>
