<svg aria-hidden="true" style="position:absolute;width:0;height:0" xmlns="http://www.w3.org/2000/svg" overflow="hidden"><defs><symbol id="ellipseY" viewBox="0 0 32 32"><path d="M31.9 14.8c.9 9.5-11 17.6-16.3 17-5.5-.5-7.5-2-9.1-4.9-1.7-3 1.7-5.3-3-8.6S-4.2.6 15.5 0C24.3 0 31.2 6 32 14.8z"/></symbol><symbol id="icon-menu" viewBox="0 0 24 16"><path clip-rule="evenodd" d="M0 2.66667V0H24V2.66667H0ZM0 9.33333H24V6.66667H0V9.33333ZM0 16H24V13.3333H0V16Z"/></symbol><symbol id="ellipseX" viewBox="0 0 45 32"><path d="M44.4 13.7c1.4 10.3-11.8 17.6-18.3 17-6.4-.7-8 .5-12.4 1s-8.2.6-11.9-4.6C-1.8 22-2.4-4.9 22.8 1 33.2.7 43.1 3.4 44.4 13.7z"/></symbol><symbol id="vector" viewBox="0 0 2 32"><path stroke="var(--color1, #b9b9b9)" stroke-width="1.1" d="M1 0v32"/></symbol><symbol id="wave" viewBox="0 0 41 32"><path d="M5.7 27.6c-2.4.2-4.2 1.7-5.7 1.9V0h40.6V20c-1.1-.3-5.6 4.2-8.2 5.1-3.7.6-1.4-2.4-10.2 1.9s-13.7.3-16.6.6z"/></symbol><symbol id="phone" viewBox="0 0 32 32"><path d="M4.7 0C4 0 3.6.3 3.3.7L.7 3.5v.1l-.2.1C-.5 7.2.1 10.8 2 14.4c2 3.8 4.5 7 7.5 9.6 3.3 2.7 6.7 5 10.2 6s6.7 1 9.2-.7v-.1l2.7-3c.8-.7.6-2 0-2.6l-6.3-5.7c-.8-.7-2.1-.7-2.8.1l-2.7 3c-2.4-.6-4.2-1.7-6.1-3.4-1.7-1.5-3-3.4-4-5.5V12l2.7-3c.8-.9.8-2.2 0-2.9L6 .5C5.7 0 5.2 0 4.7 0zm0 1.3h.6l6.2 5.8c.4.2.4.6 0 1l-3 3.4a.7.7 0 00-.1.6c1 2.6 2.4 4.6 4.5 6.4a17.7 17.7 0 007 4c.2 0 .4 0 .5-.2l3-3.4c.3-.4.7-.4 1.1 0l6.2 5.5c.2.3.2.8 0 1L28 28.4c-1.9 1.4-4.7 1.6-7.9.5a26 26 0 01-9.6-5.7c-3-2.7-5.7-5.9-7.3-9.4a13 13 0 01-1.3-9.5l2.4-2.6.5-.4z"/></symbol><symbol id="icon-vk" viewBox="0 0 53 32"><path d="M45.9 20l5.3 5.4c.7.7 1.2 1.8 1.8 2.7.7 1.4 0 2.8-1.3 3h-7.6c-2.1 0-3.6-.7-5-2.1L36 25.6l-1.2-1.2c-1.1-.8-2.2-.4-2.7.7s-.7 2.3-.9 3.5c0 1.8-.5 2.3-2.3 2.5-4 0-7.8-.5-11.2-2.5-3-1.8-5.3-4-7.5-7-3.6-5-6.8-10.7-9.5-16.7l-.2-.6C-.4 2.8.2 2 1.6 2h7.6c1.1 0 1.8.6 2.2 1.6 1.4 3.4 3 6.6 5.1 9.6.6.7 1.1 1.6 1.8 2.2 1 .5 1.8.3 2.1-.7.4-.6.4-1.3.6-1.8l-.2-7.1c-.2-1.6-1-2.5-2.5-2.7-.7-.2-.7-.5-.3-.9.7-.7 1.2-1.2 2.4-1.2h9c1.2.3 1.5.9 1.7 2.3v9.8c0 .5.2 2 1.3 2.4.7.2 1.2-.3 1.7-.8 2-2.2 3.5-4.8 4.8-7.5v-.2l1.8-3.5c.2-1.1.9-1.5 1.8-1.5h9.2c1.5.4 1.8 1 1.5 2.3-.8 2.2-2 4-3.4 6L45.5 16c-1.2 1.8-1.2 2.7.4 4.3z"/></symbol><symbol id="check" viewBox="0 0 41 32"><path d="M34.3 1.6l-4.1 2.3c-5.3 4-10 8.6-14 13.6l-.2.1-2.7 3L3.7 6.4 0 16.4 13 32l3.7-7.3 2.7-4.8A81.5 81.5 0 0131 5C33.3 3 36 1.3 39 0h.2c-1.6.2-3.2 1-4.6 1.6z"/></symbol><symbol id="financ" viewBox="0 0 27 32"><path d="M.5 13.8c0 .3-.5.3-.5 0a13.4 13.4 0 1126.8 0c0 .3-.5.3-.5 0 0-5-8.3-5-8.3 0 0 .3-.4.3-.4 0 0-5-8.3-5-8.3 0 0 .3-.6.3-.6 0 0-5-8.2-5-8.2 0zm8.3-2a27 27 0 011.3-7.4A7.1 7.1 0 0112 1C6.1 1.6 1.7 6 .6 11.5c2-2.8 6.5-2.6 8.1.4zm8.7 0c-.2-2.8-.6-5.3-1.3-7.2-1.5-5-4-5-5.7 0-.6 1.9-1 4.4-1.1 7.1 1.7-3 6.3-3 8 0zm8.6-.3A13 13 0 0014.9 1c.7.6 1.3 1.9 1.9 3.4.6 2 1 4.6 1.2 7.5 1.6-3 6.1-3.2 8-.4zm-14.4 8.4v-2.7c-.5.4-1 .8-1 1.5s.5 1 1 1.2zm.5.9c-1-.4-2-1-2-2.1 0-1.3 1-2 2-2.4v4.5zm3 3.2v2.8c.5-.3.9-.8.9-1.4s-.4-1-1-1.4zm-.5-.7c1 .3 1.8.8 1.8 2s-.9 1.9-1.8 2.4v-4.5z"/><path d="M15.1 14c2.2.6 4.5 2.2 4.5 4.7 0 2-3.5 2-3.5 0 0-.7-.4-1.1-1-1.5V21c2 .6 4.5 1.8 4.5 4.3 0 2.3-2.3 4-4.5 4.5 0 2.3-3.5 2.3-3.5 0-1.2-.3-2.3-.9-3-1.6s-1.3-1.8-1.3-3c0-2 3.5-2 3.5 0 0 .7.4 1.2.8 1.5v-4c-2-.6-4.3-1.7-4.3-4.1s2.1-4.1 4.3-4.6c0-2.3 3.5-2.3 3.5 0zm-3 0v.5c-2 .4-4.3 1.7-4.3 4.2 0 2.4 2.6 3.3 4.4 4v5c-1-.5-2-1-2-2.3s-2.4-1.4-2.4 0c0 1 .4 1.8 1.1 2.5a6 6 0 003.2 1.6v.5c0 1.5 2.6 1.5 2.6 0v-.5c2-.4 4.3-1.7 4.3-4s-2.5-3.4-4.3-4v-5.1c1 .5 1.8 1 1.8 2.3 0 1.4 2.5 1.4 2.5 0 0-2.3-2.3-3.6-4.3-4.1v-.4c0-1.6-2.5-1.6-2.5 0z"/></symbol><symbol id="icon-close" viewBox="0 0 34 32"><path stroke="var(--color2, #fff)" stroke-width="4" d="M2 30.4L31 1.6m0 28.8L2 1.6"/></symbol><symbol id="flame-problems" viewBox="0 0 28 32"><path d="M28.7 21.8c-.3-.8-.8-1.6-1.6-2.6-2-2.4-2.5-7.7-2.5-7.7a.6.6 0 00-.6-.6c-.2 0-.4 0-.5.2-2.3 2.5-1.3 6.4-.8 8l.4 1.4c.8 4.2-.8 6-1.2 6.4-.3.1-.6 0-.8-.2-.8-.8-1-3.7-.7-7.4v-2.1c-.8-4.6-3.7-7.5-4.5-8.6-2-3-2.2-8-2.2-8 0-.2-.1-.4-.3-.5h-.7c-3.4 2.3-3 7.8-2.6 11 .1.6.3 1.4.7 2.3 1.3 3.3-.3 7.5-.3 7.5v.1c-.2 1-.5 1.7-1 1.7-.5-.1-.7-.6-.7-1 0-5.4-5.5-7.3-5.6-7.3H3c-.2 0-.3 0-.5.2-.1.2-.2.5 0 .7 0 .1.2.7 0 2.8 0 2-.4 3.9-1 5.6v-.1a26.1 26.1 0 00-1 8.4c1 10.9 16.6 12.8 25.9 6.6 1-.6 1.8-1.4 2.4-2.2 3.4-4.7 1.4-11.2 0-14.6zM5 32.2c0 .4-.3.7-.6.7a.6.6 0 01-.7-.6v-3c0-.3.4-.6.7-.6.4 0 .6.4.6.7a19.9 19.9 0 000 2.9zm.3-5.6c0 .3-.3.5-.6.5h-.1a.6.6 0 01-.6-.7l.3-2.5c0-.3.4-.6.8-.5.3 0 .6.3.5.7l-.3 2.4zm19-17.9a.6.6 0 01-.5-.7c0-.3.3-1.6 1-2.3.2-.2.6-.2.9 0 .2.3.2.7 0 1-.3.2-.5 1-.6 1.5 0 .3-.4.6-.7.5zM1 12c0-.5-.4-1.2-.7-1.5a.6.6 0 010-1c.2-.2.6-.2.9 0a5 5 0 011.1 2.3.6.6 0 01-1.2.2z"/></symbol><symbol id="icon-insta" viewBox="0 0 32 32"><path d="M.5 10l.4-2.1c.7-4.2 3.7-7 7.7-7h14.8a8 8 0 018 8V23a8 8 0 01-7.9 8H8.6a8.2 8.2 0 01-7.9-8L.5 22V10zM16 28.4h6.8c3.7 0 5.8-2.2 5.9-5.8V9.4c-.1-3.6-2.4-5.7-6-5.8H9.3c-3.4 0-5.5 2.2-5.8 5.6v13.6c0 3.4 2.4 5.5 5.8 5.6H16z"/><path d="M16 8.1A7.9 7.9 0 0016 24 7.9 7.9 0 0016 8zm0 13a5.2 5.2 0 110-10.3 5.2 5.2 0 110 10.4zM26.2 7.9a1.8 1.8 0 01-3.7 0 1.8 1.8 0 013.7 0z"/></symbol><symbol id="flame" viewBox="0 0 23 32"><path d="M21.9 16.6c-.2-.6-.7-1.2-1.2-2-1.5-1.8-2-5.9-2-5.9 0-.2 0-.4-.2-.4l-.6.1c-1.7 2-1 5-.6 6.1l.3 1c.6 3.3-.5 4.7-.9 5-.3 0-.4 0-.6-.2-.6-.7-.8-2.8-.5-5.7V13c-.7-3.4-3-5.5-3.4-6.4C10.7 4.3 10.5.4 10.5.3s0-.3-.3-.3h-.6C7.1 1.8 7.5 6 7.8 8.3c0 .7.2 1 .4 1.8 1 2.6 0 5.8 0 5.8-.3.8-.5 1.4-.8 1.4h-.1a.8.8 0 01-.6-.8c0-4.2-4.2-5.5-4.2-5.5H2c-.2.2-.2.4 0 .6a17.3 17.3 0 01-.8 6.4c-1 3.1-.8 6.2-.8 6.3.8 8.2 12.6 9.7 19.8 5 .7-.4 1.3-1 1.8-1.7 2.5-3.5 1-8.5 0-11zm-18 8c0 .1-.3.4-.5.4a.5.5 0 01-.5-.5v-2.2c0-.3.2-.4.5-.4.2 0 .4.2.4.5v2.1zm.2-4.3c0 .2-.3.3-.5.3a.5.5 0 01-.5-.5l.2-1.9c0-.3.3-.5.5-.4.4 0 .6.2.5.5L4 20.2zM18.6 6.6a.5.5 0 01-.4-.5c0-.2.1-1.2.7-1.7.2-.2.5-.2.6 0 .2 0 .2.4 0 .6l-.3 1.2c0 .3-.3.5-.6.4zM.7 9.1C.7 8.6.4 8 .2 8a.5.5 0 010-.7c.1-.3.4-.3.7 0 .5.4.8 1.3.8 1.6s0 .4-.3.5C1 9.4.9 9.4.7 9z"/></symbol><symbol id="speech" viewBox="0 0 37 32"><path d="M2.4 29.5h12.2c.7 1.3 2 2.1 3.3 2.1h.8c1.5 0 2.8-.9 3.4-2.1h12.3c1.3 0 2.3-1.1 2.3-2.3v-22c0-1.2-1-2.2-2.3-2.2h-1.3V2c0-.9-.6-1.6-1.5-1.6H5.1c-.8 0-1.5.7-1.5 1.6v1H2.4h-.1C1 3 0 4 0 5.4v21.9c0 1.2 1 2.3 2.3 2.3zm29.2-4.7H19.1V7c2.9.3 5.2 2.8 5.2 5.8v.7h-.8l-.3.6-1.3 5.4c0 .5.2.9.7 1l2.5.6h.5a2 2 0 001.9-1.6l.6-3.2V16a2 2 0 00-1.4-2l-.9-.1v-1.1c0-3.8-3-7-6.7-7.3V1.9h12.5v22.8zm-7.1-9.7l1.9.4c.2 0 .3.3.3.5l-.7 3.3c0 .3-.3.4-.5.4l-1.9-.4.9-4zM5 2h12.5v3.6a7.4 7.4 0 00-6.7 7.4v1l-.8.2a2 2 0 00-1.5 2.3l.7 3.2a2 2 0 002.3 1.5l2.7-.6c.3 0 .6-.4.5-.9l-1.2-5.5a.7.7 0 00-1-.6h-.1V13c0-3 2.2-5.5 5.1-5.8v17.6H5.1V2zm7.2 13.3l.8 4-1.8.4H11a.4.4 0 01-.4-.3l-.6-3.2v-.3l.3-.2 1.9-.4zM1.6 5.2c0-.3.3-.7.8-.7h1.2v20.2c0 .8.7 1.5 1.5 1.5h26.5c.9 0 1.5-.7 1.5-1.5V4.5h1.3c.4 0 .7.4.7.7v22c0 .4-.3.7-.7.7H21.6c-.3 0-.7.2-.7.6-.2.9-1 1.6-2 1.6H18c-1 0-1.9-.7-2.1-1.6-.2-.4-.4-.6-.8-.6H2.4c-.5 0-.8-.3-.8-.7v-22z"/></symbol><symbol id="author" viewBox="0 0 27 32"><path d="M-.1 31.7h27.3c.2-3 0-8.2-2-10.7L21 18.8l.1-.8v-.7a5.8 5.8 0 00-3-2.9l.5-1.5c.4-.2.8-.5.9-1l.5-2v-.3c0-.5-.1-.8-.5-1 1.4-3.2-1-6.2-1-6.3A6.8 6.8 0 0012.6.1c-4.5 1-6.3 4.5-5.3 8.5A1.4 1.4 0 007 10l.5 2c.1.5.5.8 1 1 0 1 .5 1.9 1.1 2.6V17L2 21s-2.5 2.7-2 10.4v.4zm26.4-1h-4.5V29l3-6.8a19.4 19.4 0 011.5 8.7zM20.2 18c-.3 2-1.3 1.4-2 3-.5-.6-.7-1.4-.6-2.1.3-1.4-.5-1.8-.3-3.2l.3-.3c1.7.8 2.6 2.2 2.6 2.7zm-9.6-1.6a5 5 0 005.7.1c.1 1.2.6 1.4.4 2.3v.4l-3.2 3.4-3.8-4.4 1-.5v-1.3zm-1.2-4.2V6.8c.4-.8 1-1.4 1.9-1.8 2.4 1.3 4.5 3 6.3 4.8v2.6a4.1 4.1 0 11-8.2-.3zm-.7 6.5l4.8 5.4 3.3-3.6.3.6-3.5 4.4-5.2-6.5.5-.3zm9.9-7.3V9.8l.4-.4c0 .7 0-.1-.4 1.9zM12.8 1.1c.2 0 2.9-.4 4.9 1.8.1.2 1.8 2.3 1 4.7-.1-1-.5-2.4-1.1-3l-.7.6c.6.7 1 2.6 1.1 3.7-2.8-3.1-6.6-5-6.6-5-.2 0-1.8.4-3 2.6v1.7h-.2c-.7-3.5.6-6.3 4.5-7.1zM8.1 9.3l.3 1v1L8 9.7l.1-.4zm-.7 10l6.1 7.7 4.3-5.2c.4.4.7.5 1.6 1l-.3-1.1c-.1-.3.2-.7.4-1 .4-.2.8-.5 1-1l3.5 1.7-3.2 7.2v2H6.3v-2l-3.2-7.2 4.3-2.1zm-5 2.8l3 6.8v1.9H.8c0-1.5 0-6.3 1.6-8.7z"/></symbol><symbol id="support" viewBox="0 0 33 32"><path d="M2 12.5v2.9c0 .1 0 .3.2.4a11 11 0 009 2.1 11.8 11.8 0 009.9 0H21c3 .7 6.4 0 9-2.1l.3-.4v-2.9c0-.4-.3-.8-.7-1l-3.7-2.2A7.9 7.9 0 0027.5 5 4.2 4.2 0 0020.3 2h-.1v.2A4.4 4.4 0 0015.5 0h-.4c-1.4.3-2.4 1.1-3 2.3-.8-1-2-1.5-3.3-1.5-3.8 0-5.6 4.7-2.4 8.5l-4 2.2c-.3.2-.5.6-.5 1zm19 4.3l-.3.1a11 11 0 01-11.4-1.2h.1V13l.1-.2 4.6-2.6c.6.5 1.3.8 2 .8.8 0 1.5-.3 2.1-.8l4.5 2.5.1.3v2.8L21 16.8zm8.1-4.4l.2.1v2.7a10 10 0 01-6.8 2l1.1-.9.2-.3v-3.1c0-.5-.3-.9-.7-1.1l-2.3-1.3.6-.4c.7.6 1.3.7 1.8.7.7 0 1.3-.3 1.9-.7l4 2.3zM23.2 1.7c1.4 0 2.7 1 3 2.2-.8 0-1.6-.5-2.2-1.1a.5.5 0 00-.8 0c-.5 1-1.4 1.7-2.5 1.9V4l-.2-.7c.6-.8 1.6-1.4 2.7-1.4zm-2.7 4c1.3-.2 2.5-.8 3.2-1.8.8.6 1.7 1 2.7 1 0 1.8-1.5 5-3.2 5-1.3 0-2.5-2-2.9-3.3l.2-1zm.2 3.6l-.9.5-1-.5 1-1.4c.2.5.5 1 .9 1.4zm-1.4-2.9c-.4 1.4-1.7 3.5-3.2 3.5-1.7 0-3.2-2.9-3.5-4.7 0 0 2.5.1 4-2 .9.7 2 1.1 3 1.2a7 7 0 01-.3 2zM16.1.9c2.8 0 3.4 2.4 3.4 2.5-1-.1-2-.6-2.6-1.3a.5.5 0 00-.8.1 4 4 0 01-3.5 2A3.5 3.5 0 0116.1.9zm-3.6 7c.2.5.5 1 .9 1.4l-1 .5-.8-.5.9-1.4zM9 1.7c1.1 0 2.1.6 2.7 1.6l-.1.5c-.7-.2-1.3-.5-1.8-1a.5.5 0 00-.8 0 3.7 3.7 0 01-3.2 1.9A3.2 3.2 0 019 1.8zm-3.1 4c1.5 0 2.8-.7 3.6-1.8.6.4 1.3.8 2 1l.4 1.7c-.2.9-.8 1.9-1.4 2.5A2 2 0 019 10c-1.6 0-2.8-2.6-3.1-4.2zM3 12.5v-.1l4.2-2.3.3.3c.5.3 1 .5 1.6.5.6 0 1.2-.3 1.7-.7v-.1l.7.3-2.4 1.3c-.4.3-.7.7-.7 1.2V16c0 .1.1.3.3.3.2.3.6.6 1 .8H9a10 10 0 01-6-2v-2.6z"/><path d="M31.3 20.8a2 2 0 00-2-.1L23 23.6c0-1.1-.9-2-2.1-2h-3.5a10 10 0 00-6-2.5H7V18H0v11.5h7v-1.3c2.7 1.7 5.9 3 9.3 3.8h.2c4.2-.3 14-7.2 14.7-7.7a2 2 0 000-3.5zM5.9 28.5H1.1V19H6v9.5zm24.8-5c-.2.1-10.4 7.3-14.3 7.5h-.1c-2.1 0-7.2-2.7-9.4-4v-7h4.7c1.8 0 3.8 1 5.3 2.4l.2.1H21a1.1 1.1 0 110 2.3h-7.1v1H21a2 2 0 001.7-.9l7-3.3c.3-.2.7-.2 1 0s.6.5.6 1c0 .3-.3.7-.6.9zM16.7 12h-1.1v1h1v-1zm0 1.9h-1.1v1h1v-1zm0 1.8h-1.1v1h1v-1z"/></symbol><symbol id="reading" viewBox="0 0 44 32"><path d="M19.6 4.7H5.9v.9h13.7v-1zm0 3.7H8v1h11.6v-1zm0 3.8H5.9v1.1h13.7v-1zm0 3.8H8v1h11.6v-1zm0 3.9H5.9v1h13.7v-1zm0 3.8H8v1h11.6v-1zm18.7-19H24.7v.9h13.6v-1zm-2 3.7H24.7v1h11.6v-1zm2 3.8H24.7v1.1h13.6v-1zm-2 3.8H24.7v1h11.6v-1zm2 3.9H24.7v1h13.6v-1zm-2 3.8H24.7v1h11.6v-1z"/><path d="M43.3 3.5h-2V.6c0-.3-.2-.5-.5-.5H25.6a4 4 0 00-3.5 2 4 4 0 00-3.4-2H3.4c-.3 0-.5.2-.5.5v2.9H1.1c-.4 0-.6.2-.6.4v27.5c0 .3.2.5.6.5h42.2c.2 0 .4-.2.4-.5V3.9c0-.2-.2-.4-.4-.4zM25.6 1h14.7v27.4H24.5c-.6 0-1.4.3-1.8.6v-25a3 3 0 012.9-2.9zm-21.7 0h14.8c1.6 0 2.9 1.3 2.9 2.9v25.2c-.4-.4-1.1-.7-1.8-.7H3.9V1.2zM1.5 4.5H3V29c0 .3.2.5.5.5h16.4c.7 0 1.5.5 1.7 1.4h-20V4.5zm41.2 26.4h-20c.3-.9 1-1.4 1.8-1.4H41c.2 0 .5-.2.5-.5V4.5h1.3v26.4z"/></symbol><symbol id="training" viewBox="0 0 33 32"><path d="M30.2-.1H14.4c-1 0-1.8.8-1.8 1.8v6.5l-11.7 5a.4.4 0 000 .6l1.4.9v9.5c-.7.2-1.3 1-1.3 1.7v1c0 .1.2.3.4.3H4c.1 0 .3-.2.3-.4V26c0-.8-.6-1.5-1.3-1.7v-9l1.2.7v4.4c0 1.6 4 2.5 8.3 2.6v7.4c0 .3 0 .7.3 1 .3.5 1 .8 1.5.8h15.8c1 0 1.8-.8 1.8-1.8V1.7c0-1-.8-1.8-1.8-1.8zm-26.6 26v.6H1.8v-.6a1 1 0 012 0zm26.6 5.5H14.4a1 1 0 01-1-1.1v-2.6h17.9v2.6c0 .5-.5 1-1.1 1zm1-4.4H13.4v-4.1c2 0 8.4-.5 8.4-2.6v-4.4l3.4-2a.4.4 0 000-.8L13.3 8.2V5h18v22zM13 17.7c-2 0-6 .3-8 1.4 0-3.5 0-3.2.4-3.6a17 17 0 017.6-1.3c1.5 0 8 .4 8 1.7v3.2a18 18 0 00-8-1.3zm.4-16c0-.6.5-1.2 1.1-1.2h15.8c.6 0 1 .6 1 1.1v2.6H13.4V1.7zM13 8.8L24 13.5l-2.7 1.7c-1.5-1.4-6.3-1.7-8.4-1.7s-6.8.3-8.3 1.7L2 13.5 13 9zM5 20.3c0-.6 2.8-1.7 8-1.7s8 1 8 1.7-2.7 1.8-8 1.8c-5.1 0-8-1.1-8-1.8z"/><path d="M22.3 28.3H22a1.3 1.3 0 10.3 2.5 1.3 1.3 0 000-2.5zm0 1.7a.5.5 0 010-1 .5.5 0 010 1zm1.5-28h-3V3h3V2z"/></symbol><symbol id="program" viewBox="0 0 31 32"><path d="M30.1 5v-.1L25.2 0V0H3.8c-.2 0-.3.1-.3.3v29.4L5.9 32c.2.1.3.1.4 0l2-2 2 2a.3.3 0 00.4 0l2-2 1.9 2c.1.1.3.1.4 0l2-2 2 2h.3l2-2 2 2a.3.3 0 00.4 0l2-2 1.9 2c.1.1.3.1.4 0l2.1-2.1v-.1h.1v-25zm-4.8-4l3.9 3.8h-3.9V.9zm4.3 28.5l-1.9 1.8-2-2a.3.3 0 00-.4 0l-2 2-1.9-2a.3.3 0 00-.4 0l-2 2-2-2a.3.3 0 00-.3 0l-2 2-2-2a.3.3 0 00-.3 0l-2 2-2-2a.3.3 0 00-.3 0l-2 2-1.9-1.8V.5h20.6v4.6c0 .1.1.2.3.2h4.5v24.2z"/><path d="M6.3 3.3h9.4a.3.3 0 100-.6H6.3a.3.3 0 100 .6zm0 1.7h14.9a.3.3 0 100-.6H6.3a.3.3 0 100 .6zM6 6.6v9.1c0 .2.1.4.3.4h21.2c.2 0 .3-.2.3-.4v-9c0-.2-.1-.4-.3-.4H6.3c-.2 0-.3.2-.3.4zm6.3.3h14.9v2.4H12.3V6.9zm0 3h14.9v2.4H12.3V10zm0 3h14.9v2.6H12.3V13zm-5.7-6h5.1v2.4h-5V6.9zm0 3h5.1v2.4h-5V10zm0 3h5.1v2.6h-5V13zm20.9 4.4H6.3c-.2 0-.3.2-.3.3v9.2a.3.3 0 10.6 0V24h5.1v2.9a.3.3 0 10.6 0V24h14.9v2.9a.3.3 0 10.6 0v-9.3c0-.1-.1-.3-.3-.3zm-15.8 6h-5V21h5.1v2.4zm0-3h-5V18h5.1v2.4zm15.5 3H12.3V21h14.9v2.4zm0-3H12.3V18h14.9v2.4zM2.2 0S2 .1 2 .3v29.3a.3.3 0 10.5 0V.3c0-.2 0-.3-.2-.3zM.8 0C.6 0 .5.1.5.3v29.3a.3.3 0 10.6 0V.3C1 0 .9 0 .8 0z"/></symbol><symbol id="dot" viewBox="0 0 32 32"><path d="M16 32a16 16 0 110-32 16 16 0 010 32z"/></symbol><symbol id="untitled" viewBox="0 0 213 32"><path d="M0 4.3h213.3v21.3H0V4.3z"/></symbol><symbol viewBox="0 0 336 70" id="rectangle"><path stroke="#FF6B09" stroke-width="2" d="M1 1h334v68H1z"></path></symbol></defs></svg>