<svg aria-hidden="true" style="position:absolute;width:0;height:0" xmlns="http://www.w3.org/2000/svg" overflow="hidden">
    <defs>
        <!-- common -->
        <symbol id="icon-menu" viewBox="0 0 24 16">
            <path clip-rule="evenodd"
                d="M0 2.66667V0H24V2.66667H0ZM0 9.33333H24V6.66667H0V9.33333ZM0 16H24V13.3333H0V16Z" />
        </symbol>
        <symbol id="icon-flame" viewBox="0 0 22 30">
            <path
                d="M20.54 15.556c-.267-.596-.633-1.182-1.17-1.86-1.352-1.7-1.764-5.49-1.769-5.527a.457.457 0 00-.316-.386.465.465 0 00-.486.132c-1.613 1.804-.935 4.59-.568 5.704.1.305.21.664.289 1.028.595 2.94-.555 4.272-.825 4.54-.262.073-.44.037-.605-.14-.569-.623-.757-2.664-.49-5.323a5.44 5.44 0 00-.037-1.482c-.561-3.268-2.617-5.365-3.14-6.1-1.44-2.127-1.586-5.668-1.59-5.7a.458.458 0 00-.715-.36c-2.402 1.633-2.196 5.565-1.861 7.76.078.51.229 1.027.49 1.682.93 2.34-.183 5.364-.192 5.39-.01.028-.019.05-.023.078-.142.746-.38 1.191-.647 1.191a.314.314 0 01-.087-.014c-.325-.068-.495-.413-.5-.713-.018-3.877-3.909-5.182-3.95-5.196a.456.456 0 00-.486.137.447.447 0 00-.064.5c.046.095.192.513.092 1.99a16.978 16.978 0 01-.72 3.9C.244 19.807.39 22.666.4 22.802c.712 7.742 11.845 9.098 18.452 4.737.725-.478 1.316-1.023 1.751-1.623 2.439-3.364 1.004-7.932-.064-10.36zM3.603 22.95a.454.454 0 01-.431.477h-.028a.456.456 0 01-.458-.427c-.041-.663-.032-1.359.018-2.113a.463.463 0 01.49-.423.458.458 0 01.427.486c-.05.718-.06 1.373-.018 2zm.224-4.027a.455.455 0 01-.453.4c-.019 0-.037 0-.06-.005a.459.459 0 01-.399-.504l.22-1.755a.463.463 0 01.514-.395c.252.032.43.259.398.509l-.22 1.75zM17.438 6.219a.455.455 0 01-.383-.518c.03-.185.195-1.13.644-1.606a.46.46 0 01.648-.02c.185.171.194.459.02.642-.19.201-.351.777-.406 1.122a.458.458 0 01-.523.38zM.73 8.483C.641 8.145.423 7.587.213 7.405a.452.452 0 01-.042-.641.46.46 0 01.647-.042c.494.43.752 1.354.798 1.535a.454.454 0 01-.33.553.46.46 0 01-.558-.327z"
                fill="#FF6B09" />
        </symbol>
        <symbol id="icon-check" viewBox="0 0 41 32">
            <path
                d="M34.3 1.6l-4.1 2.3c-5.3 4-10 8.6-14 13.6l-.2.1-2.7 3L3.7 6.4 0 16.4 13 32l3.7-7.3 2.7-4.8A81.5 81.5 0 0131 5C33.3 3 36 1.3 39 0h.2c-1.6.2-3.2 1-4.6 1.6z"
                fill="#FF6B09" />
        </symbol>
        <symbol id="wave" viewBox="0 0 41 32">
            <path
                d="M5.7 27.6c-2.4.2-4.2 1.7-5.7 1.9V0h40.6V20c-1.1-.3-5.6 4.2-8.2 5.1-3.7.6-1.4-2.4-10.2 1.9s-13.7.3-16.6.6z" />
        </symbol>
        <symbol id="icon-phone" viewBox="0 0 32 32">
            <path
                d="M4.7 0C4 0 3.6.3 3.3.7L.7 3.5v.1l-.2.1C-.5 7.2.1 10.8 2 14.4c2 3.8 4.5 7 7.5 9.6 3.3 2.7 6.7 5 10.2 6s6.7 1 9.2-.7v-.1l2.7-3c.8-.7.6-2 0-2.6l-6.3-5.7c-.8-.7-2.1-.7-2.8.1l-2.7 3c-2.4-.6-4.2-1.7-6.1-3.4-1.7-1.5-3-3.4-4-5.5V12l2.7-3c.8-.9.8-2.2 0-2.9L6 .5C5.7 0 5.2 0 4.7 0zm0 1.3h.6l6.2 5.8c.4.2.4.6 0 1l-3 3.4a.7.7 0 00-.1.6c1 2.6 2.4 4.6 4.5 6.4a17.7 17.7 0 007 4c.2 0 .4 0 .5-.2l3-3.4c.3-.4.7-.4 1.1 0l6.2 5.5c.2.3.2.8 0 1L28 28.4c-1.9 1.4-4.7 1.6-7.9.5a26 26 0 01-9.6-5.7c-3-2.7-5.7-5.9-7.3-9.4a13 13 0 01-1.3-9.5l2.4-2.6.5-.4z" />
        </symbol>
        <symbol id="icon-close" viewBox="0 0 34 32">
            <path stroke="var(--color2, #fff)" stroke-width="4" d="M2 30.4L31 1.6m0 28.8L2 1.6" />
        </symbol>
        <symbol id="icon-dot" viewBox="0 0 32 32">
            <path d="M16 32a16 16 0 110-32 16 16 0 010 32z" />
        </symbol>

        <symbol id="icon-untitled" viewBox="0 0 213 32">
            <path d="M0 4.3h213.3v21.3H0V4.3z" />
        </symbol>

        <!-- social -->
        <symbol id="icon-fb" viewBox="0 0 32 32">
            <path
                d="M21.329 5.313h2.921v-5.088c-0.504-0.069-2.237-0.225-4.256-0.225-4.212 0-7.097 2.649-7.097 7.519v4.481h-4.648v5.688h4.648v14.312h5.699v-14.311h4.46l0.708-5.688h-5.169v-3.919c0.001-1.644 0.444-2.769 2.735-2.769z">
            </path>
        </symbol>
        <symbol id="icon-ig" viewBox="0 0 32 32">
            <path
                d="M.5 10l.4-2.1c.7-4.2 3.7-7 7.7-7h14.8a8 8 0 018 8V23a8 8 0 01-7.9 8H8.6a8.2 8.2 0 01-7.9-8L.5 22V10zM16 28.4h6.8c3.7 0 5.8-2.2 5.9-5.8V9.4c-.1-3.6-2.4-5.7-6-5.8H9.3c-3.4 0-5.5 2.2-5.8 5.6v13.6c0 3.4 2.4 5.5 5.8 5.6H16z" />
            <path
                d="M16 8.1A7.9 7.9 0 0016 24 7.9 7.9 0 0016 8zm0 13a5.2 5.2 0 110-10.3 5.2 5.2 0 110 10.4zM26.2 7.9a1.8 1.8 0 01-3.7 0 1.8 1.8 0 013.7 0z" />
        </symbol>

        <symbol id="icon-in" viewBox="0 0 32 32">
            <path
                d="M31.992 32v-0.001h0.008v-11.736c0-5.741-1.236-10.164-7.948-10.164-3.227 0-5.392 1.771-6.276 3.449h-0.093v-2.913h-6.364v21.364h6.627v-10.579c0-2.785 0.528-5.479 3.977-5.479 3.399 0 3.449 3.179 3.449 5.657v10.401h6.62z">
            </path>
            <path d="M0.528 10.636h6.635v21.364h-6.635v-21.364z">
            </path>
            <path
                d="M3.843 0c-2.121 0-3.843 1.721-3.843 3.843s1.721 3.879 3.843 3.879c2.121 0 3.843-1.757 3.843-3.879-0.001-2.121-1.723-3.843-3.843-3.843v0z">
            </path>
        </symbol>
        <symbol id="icon-twitter" viewBox="0 0 32 32">
            <path
                d="M32 6.078c-1.19 0.522-2.458 0.868-3.78 1.036 1.36-0.812 2.398-2.088 2.886-3.626-1.268 0.756-2.668 1.29-4.16 1.588-1.204-1.282-2.92-2.076-4.792-2.076-3.632 0-6.556 2.948-6.556 6.562 0 0.52 0.044 1.020 0.152 1.496-5.454-0.266-10.28-2.88-13.522-6.862-0.566 0.982-0.898 2.106-0.898 3.316 0 2.272 1.17 4.286 2.914 5.452-1.054-0.020-2.088-0.326-2.964-0.808 0 0.020 0 0.046 0 0.072 0 3.188 2.274 5.836 5.256 6.446-0.534 0.146-1.116 0.216-1.72 0.216-0.42 0-0.844-0.024-1.242-0.112 0.85 2.598 3.262 4.508 6.13 4.57-2.232 1.746-5.066 2.798-8.134 2.798-0.538 0-1.054-0.024-1.57-0.090 2.906 1.874 6.35 2.944 10.064 2.944 12.072 0 18.672-10 18.672-18.668 0-0.29-0.010-0.57-0.024-0.848 1.302-0.924 2.396-2.078 3.288-3.406z">
            </path>
        </symbol>
        <symbol id="icon-vk" viewBox="0 0 53 32">
            <path
                d="M45.9 20l5.3 5.4c.7.7 1.2 1.8 1.8 2.7.7 1.4 0 2.8-1.3 3h-7.6c-2.1 0-3.6-.7-5-2.1L36 25.6l-1.2-1.2c-1.1-.8-2.2-.4-2.7.7s-.7 2.3-.9 3.5c0 1.8-.5 2.3-2.3 2.5-4 0-7.8-.5-11.2-2.5-3-1.8-5.3-4-7.5-7-3.6-5-6.8-10.7-9.5-16.7l-.2-.6C-.4 2.8.2 2 1.6 2h7.6c1.1 0 1.8.6 2.2 1.6 1.4 3.4 3 6.6 5.1 9.6.6.7 1.1 1.6 1.8 2.2 1 .5 1.8.3 2.1-.7.4-.6.4-1.3.6-1.8l-.2-7.1c-.2-1.6-1-2.5-2.5-2.7-.7-.2-.7-.5-.3-.9.7-.7 1.2-1.2 2.4-1.2h9c1.2.3 1.5.9 1.7 2.3v9.8c0 .5.2 2 1.3 2.4.7.2 1.2-.3 1.7-.8 2-2.2 3.5-4.8 4.8-7.5v-.2l1.8-3.5c.2-1.1.9-1.5 1.8-1.5h9.2c1.5.4 1.8 1 1.5 2.3-.8 2.2-2 4-3.4 6L45.5 16c-1.2 1.8-1.2 2.7.4 4.3z" />
        </symbol>

        <!-- advantages -->

        <symbol id="female-student" viewBox="0 0 61 63">
            <path d="M59.824 9.735V1.5H1v60h58.824v-8.235" fill="transparent" stroke="#FF6B09" stroke-width="2" />
            <g clip-path="url(#clip0)">
                <path
                    d="M13.872 51.198h33.48c.166-3.818-.107-10.153-2.455-13.168l-.085-.108-5.13-2.576c.112-.375.167-.72.189-.972a1.785 1.785 0 00-.125-.848c-.846-2.025-2.637-3.09-3.622-3.545.3-.604.493-1.254.587-1.917a1.646 1.646 0 001.153-1.189l.599-2.432c.106-.43.04-.874-.189-1.253a1.64 1.64 0 00-.367-.418c1.688-3.834-1.14-7.45-1.293-7.64-3.063-3.311-6.931-2.692-7.135-2.655-5.583 1.168-7.738 5.447-6.521 10.465-.36.399-.512.955-.378 1.5l.601 2.436c.146.585.591 1.025 1.145 1.184a6.265 6.265 0 001.44 3.2v1.928c-8.01 4.102-2.935 1.485-9.355 4.733-.013.06-3.012 3.248-2.567 12.698l.028.577zm32.317-1.212h-5.51v-2.314l3.644-8.343c1.826 3.03 1.894 8.816 1.866 10.657zm-7.52-15.715c-.213 2.442-1.553 1.704-2.38 3.586-.65-.715-.846-1.573-.67-2.491.315-1.686-.714-2.186-.46-3.957l.039-.041v-.006c.022-.024.225-.266.283-.342 2.18.95 3.23 2.718 3.188 3.25zm-11.696-1.92a6.207 6.207 0 006.969.093c.14 1.392.684 1.671.49 2.696-.036.19-.055.377-.067.562l-3.753 4.23-4.797-5.409 1.158-.605V32.35zm-1.508-5.177V24.83v-4.12c.584-1.08 1.38-1.863 2.37-2.333 2.65 1.5 5.7 3.737 7.745 5.99-.002 2.868.009 2.875-.01 3.111l-.002.015c-.16 2.604-2.3 4.763-5.047 4.763-2.67 0-4.886-2.096-5.047-4.789a3.398 3.398 0 01-.01-.292zm-.748 7.934l5.895 6.646 3.958-4.461c.09.26.218.507.363.744l-4.32 5.403-6.443-8.057.547-.275zm12.07-8.909v-1.872l.45-.516c.025.948.128-.171-.45 2.388zm-7.085-12.531c.24.015 3.456-.49 5.999 2.255.1.126 2.17 2.792 1.338 5.71-.285-1.299-.78-2.962-1.565-3.756l-.856.854c.773.784 1.282 3.171 1.476 4.409-3.55-3.716-8.131-6.067-8.194-6.107-.23.143-2.168.512-3.575 3.247l-.067.131v2.01l-.178.002c-.894-4.318.819-7.748 5.622-8.755zm-5.75 10.001l.305 1.235V26.2l-.506-2.05c-.074-.305.152-.42.202-.482zm-.887 12.268l7.547 9.439 5.106-6.386c.556.497.823.567 2 1.173l-.397-1.348c-.1-.342.299-.89.54-1.142a3.652 3.652 0 001.322-1.222l4.166 2.091-3.877 8.876v2.568h-17.72v-2.569l-3.878-8.874 5.192-2.606zM16.9 39.331l3.645 8.34v2.315h-5.51c-.028-1.84.04-7.624 1.865-10.655z"
                    fill="#FF6B09" />
            </g>
        </symbol>
        <symbol id="mobile-lerning" viewBox="0 0 61 63">
            <path d="M59.824 9.735V1.5H1v60h58.824v-8.235" fill="transparent" stroke="#FF6B09" stroke-width="2" />
            <g clip-path="url(#clip0)" fill="#FF6B09">
                <path
                    d="M48.662 10.336H28.487a2.384 2.384 0 00-2.381 2.382v8.35L11.118 27.36a.487.487 0 00-.063.868l1.912 1.144v12.191a2.202 2.202 0 00-1.711 2.145v1.175c0 .27.219.488.488.488h3.423c.27 0 .488-.219.488-.488v-1.175a2.204 2.204 0 00-1.712-2.143V29.957l1.511.904c-.046.349-.006-.607-.021 5.676 0 2.065 5.29 3.172 10.673 3.235v9.514a2.379 2.379 0 002.38 2.378h20.175a2.382 2.382 0 002.38-2.38c0 .066-.004-2.015 0-36.566 0-1.296-1.072-2.382-2.38-2.382zM14.679 43.708v.687h-2.447v-.687c0-.677.548-1.227 1.22-1.227.677 0 1.227.55 1.227 1.227zm33.983 6.977H28.487c-.484 0-.911-.245-1.164-.617a1.395 1.395 0 01-.24-.783v-3.298H50.06v3.299c0 .764-.637 1.4-1.4 1.4zm1.4-5.675h-22.98v-5.235c2.628-.03 10.68-.609 10.68-3.238-.004-3.947.006-5.548-.013-5.683l4.383-2.626a.488.488 0 00-.063-.868l-14.987-6.291v-4.077h22.98V45.01zM26.593 33.297c-2.708 0-7.92.35-10.185 1.829.014-4.523-.157-4.229.4-4.612 1.407-1.036 5.43-1.76 9.785-1.76 1.899 0 10.19.523 10.19 2.278v4.094c-2.285-1.492-7.471-1.829-10.19-1.829zm.489-20.578c0-.774.63-1.403 1.403-1.403h20.175c.774 0 1.4.638 1.4 1.403v3.298H27.083v-3.298zm-.49 9.205l14.21 5.964-3.521 2.106c-1.872-1.856-8.064-2.216-10.688-2.216-2.628 0-8.82.361-10.689 2.217l-3.521-2.107 14.21-5.964zM16.41 36.537c0-.79 3.498-2.265 10.185-2.265 6.69 0 10.19 1.475 10.19 2.265s-3.5 2.265-10.19 2.265c-6.687 0-10.185-1.474-10.185-2.265z" />
                <path
                    d="M38.573 46.723c-.89 0-1.614.724-1.614 1.614 0 .89.724 1.615 1.614 1.615.89 0 1.615-.725 1.615-1.615s-.724-1.614-1.615-1.614zm0 2.253a.64.64 0 11.003-1.279.64.64 0 01-.003 1.279zM40.435 13.177h-3.724v.976h3.724v-.976z" />
            </g>
        </symbol>
        <symbol id="insuranse" viewBox="0 0 61 63">
            <path d="M59.824 9.735V1.5H1v60h58.824v-8.235" fill="transparent" stroke="#FF6B09" stroke-width="2" />
            <g clip-path="url(#clip0)" fill="#FF6B09">
                <path
                    d="M13.677 28.678c0 .446-.677.446-.677 0C13 19.193 20.693 11.5 30.178 11.5c9.489 0 17.177 7.693 17.177 17.178 0 .446-.673.446-.673 0 0-6.412-10.535-6.416-10.535 0 0 .446-.694.446-.694 0 0-6.395-10.551-6.395-10.551 0 0 .446-.694.446-.694 0 0-6.383-10.53-6.428-10.53 0zm10.592-2.49c.183-3.69.763-7 1.606-9.526.673-2.007 1.525-3.532 2.49-4.387-7.242.79-13.106 6.281-14.416 13.402 2.494-3.597 8.252-3.31 10.32.51zm11.132-.166c-.187-3.549-.75-6.724-1.562-9.145-2.092-6.265-5.23-6.265-7.323 0-.811 2.421-1.37 5.596-1.561 9.145 2.25-3.824 8.195-3.824 10.446 0zm11.005-.345c-1.305-7.121-7.17-12.612-14.416-13.402.97.855 1.817 2.38 2.49 4.387.844 2.527 1.424 5.836 1.606 9.526 2.08-3.84 7.855-4.068 10.32-.511zM27.923 36.537V33.05c-.629.418-1.123 1.063-1.123 1.85 0 .766.502 1.273 1.123 1.638zm.677 1.083c-1.204-.551-2.474-1.196-2.474-2.721 0-1.574 1.197-2.36 2.474-2.949v5.67zM32.432 41.8v3.528c.637-.422 1.136-1.07 1.136-1.857 0-.775-.511-1.298-1.136-1.671zm-.673-1.087c1.209.56 2.486 1.225 2.486 2.758 0 1.577-1.204 2.364-2.486 2.948v-5.706z" />
                <path
                    d="M32.432 29.08c2.774.64 5.625 2.716 5.625 5.818 0 2.657-4.49 2.56-4.49 0 0-.79-.498-1.44-1.135-1.857v4.964c2.567.84 5.633 2.344 5.633 5.466 0 3.107-2.85 5.179-5.633 5.815-.012 2.957-4.5 2.953-4.509-.004-1.581-.365-2.956-1.103-3.95-2.08-1.042-1.03-1.658-2.324-1.658-3.73 0-2.617 4.485-2.617 4.485 0 0 .782.494 1.427 1.123 1.844v-4.96c-2.547-.823-5.629-2.372-5.629-5.466 0-3.106 2.851-5.178 5.629-5.815.012-2.956 4.501-2.952 4.51.004zm-3.832.007v.54c-2.64.523-5.632 2.214-5.632 5.263 0 2.932 3.284 4.246 5.632 4.972v6.553c-1.27-.58-2.474-1.362-2.474-2.944 0-1.727-3.138-1.727-3.138 0 0 1.22.543 2.348 1.46 3.248 1.163 1.152 2.575 1.7 4.152 2.012v.543c0 2.08 3.16 2.08 3.16 0v-.54c2.647-.526 5.628-2.217 5.628-5.263 0-2.96-3.277-4.233-5.629-4.976V31.946c1.273.58 2.486 1.363 2.486 2.952 0 1.683 3.135 1.752 3.135 0 0-3.045-2.977-4.74-5.62-5.267v-.544c0-2.08-3.16-2.08-3.16 0z" />
            </g>
        </symbol>
        <symbol id="insuranse-small" viewBox="0 0 35 41">
            <g clip-path="url(#clip0)">
                <path
                    d="M.677 17.678c0 .446-.677.446-.677 0C0 8.193 7.693.5 17.178.5c9.489 0 17.177 7.693 17.177 17.178 0 .446-.673.446-.673 0 0-6.412-10.535-6.416-10.535 0 0 .446-.694.446-.694 0 0-6.395-10.551-6.395-10.551 0 0 .446-.694.446-.694 0 0-6.383-10.53-6.428-10.53 0zm10.592-2.49c.183-3.69.763-7 1.606-9.526.673-2.007 1.525-3.532 2.49-4.387C8.122 2.065 2.259 7.556.949 14.677c2.494-3.597 8.252-3.31 10.32.51zm11.132-.167c-.187-3.548-.75-6.723-1.562-9.144-2.092-6.265-5.23-6.265-7.323 0-.811 2.421-1.37 5.596-1.561 9.144 2.25-3.824 8.195-3.824 10.446 0zm11.005-.344C32.101 7.556 26.236 2.065 18.99 1.275c.97.855 1.817 2.38 2.49 4.387.844 2.527 1.424 5.836 1.606 9.526 2.08-3.84 7.855-4.068 10.32-.511zM14.923 25.537V22.05c-.629.418-1.123 1.063-1.123 1.85 0 .766.502 1.273 1.123 1.638zm.677 1.083c-1.204-.551-2.473-1.196-2.473-2.721 0-1.574 1.196-2.36 2.473-2.949v5.67zM19.432 30.8v3.528c.637-.422 1.136-1.07 1.136-1.857 0-.775-.511-1.298-1.136-1.671zm-.673-1.087c1.209.56 2.486 1.225 2.486 2.758 0 1.577-1.204 2.364-2.486 2.948v-5.706z" />
                <path
                    d="M19.432 18.08c2.774.64 5.625 2.716 5.625 5.818 0 2.657-4.49 2.56-4.49 0 0-.79-.498-1.44-1.135-1.857v4.964c2.567.84 5.633 2.344 5.633 5.466 0 3.107-2.85 5.179-5.633 5.815-.012 2.957-4.5 2.953-4.509-.004-1.582-.365-2.956-1.103-3.95-2.08-1.042-1.03-1.658-2.324-1.658-3.73 0-2.617 4.485-2.617 4.485 0 0 .782.494 1.427 1.123 1.844v-4.96c-2.547-.823-5.629-2.372-5.629-5.466 0-3.106 2.851-5.178 5.629-5.815.012-2.956 4.501-2.952 4.51.004zm-3.832.007v.54c-2.64.523-5.632 2.214-5.632 5.263 0 2.932 3.284 4.246 5.632 4.972v6.553c-1.27-.58-2.473-1.362-2.473-2.944 0-1.727-3.14-1.727-3.14 0 0 1.22.544 2.348 1.46 3.248 1.165 1.152 2.576 1.7 4.153 2.012v.543c0 2.08 3.16 2.08 3.16 0v-.54c2.647-.526 5.628-2.217 5.628-5.263 0-2.96-3.277-4.233-5.629-4.976V20.946c1.273.58 2.486 1.363 2.486 2.952 0 1.683 3.135 1.752 3.135 0 0-3.045-2.977-4.74-5.62-5.267v-.544c0-2.08-3.16-2.08-3.16 0z" />
            </g>
        </symbol>
        <symbol id="icon-rectangle" viewBox="0 0 61 63">
            <path d="M59.824 9.735V1.5H1v60h58.824v-8.235" fill="transparent" stroke="#FF6B09" stroke-width="2" />
        </symbol>

        <!-- problems -->
        <symbol id="icon-campfire" viewBox="0 0 407 472">
            <g clip-path="url(#clip0)" fill="#3D3D3D">
                <path
                    d="M424.788 322.005c-5.498-12.326-13.081-24.463-24.171-38.483-27.964-35.19-36.495-113.662-36.59-114.414-.379-3.764-3.033-6.869-6.541-7.998a9.61 9.61 0 00-10.048 2.728c-33.366 37.355-19.337 95.032-11.754 118.085 2.086 6.304 4.361 13.737 5.971 21.264 12.323 60.877-11.47 88.446-17.062 93.997-5.403 1.505-9.1.753-12.513-2.917-11.754-12.89-15.64-55.137-10.143-110.18 1.139-11.197.854-21.265-.758-30.674-11.595-67.654-54.109-111.051-64.932-126.27-29.765-44.034-32.798-117.331-32.893-117.99-.095-3.481-2.085-6.586-5.213-8.092-3.034-1.505-6.731-1.317-9.574.659-49.671 33.779-45.406 115.167-38.486 160.613 1.612 10.538 4.74 21.265 10.143 34.814 19.243 48.457-3.792 111.027-3.981 111.592-.19.564-.379 1.034-.474 1.599-2.939 15.431-7.868 24.652-13.366 24.652-.569 0-1.137-.094-1.801-.282-6.73-1.412-10.237-8.563-10.332-14.773-.379-80.259-80.858-107.263-81.71-107.546-3.603-1.129-7.584-.094-10.049 2.823-2.559 2.917-3.033 6.963-1.327 10.35.948 1.976 3.982 10.632 1.896 41.212-1.8 27.475-6.825 54.667-14.882 80.73C5.05 409.98 8.083 469.164 8.273 471.986c14.724 160.244 244.979 188.322 381.631 98.043 14.977-9.88 27.205-21.17 36.211-33.59 50.43-69.628 20.76-164.189-1.327-214.434zM74.533 475.091c.285 5.175-3.697 9.598-8.91 9.88h-.569c-5.024 0-9.195-3.858-9.48-8.845-.852-13.737-.663-28.133.38-43.752.38-5.175 4.93-9.033 10.143-8.751 5.213.376 9.195 4.892 8.815 10.067-1.043 14.868-1.232 28.417-.379 41.401zm4.644-83.364c-.569 4.798-4.645 8.28-9.384 8.28-.38 0-.759 0-1.233-.094-5.118-.659-8.815-5.27-8.247-10.444l4.55-36.32c.664-5.081 5.309-8.75 10.617-8.185 5.214.658 8.91 5.363 8.247 10.538l-4.55 36.225zM360.658 128.726c-5.17-.795-8.715-5.591-7.919-10.723.592-3.823 4.017-23.394 13.311-33.235 3.578-3.794 9.568-3.992 13.4-.427a9.36 9.36 0 01.43 13.3c-3.933 4.168-7.285 16.094-8.405 23.23-.8 5.077-5.571 8.64-10.817 7.855zM15.085 175.594c-1.815-6.997-6.323-18.538-10.65-22.305-3.939-3.428-4.332-9.373-.88-13.277 3.444-3.914 9.428-4.314 13.376-.873 10.215 8.889 15.552 28.034 16.52 31.778 1.295 5.031-1.759 10.148-6.823 11.444-5.175 1.292-10.253-1.82-11.543-6.767z" />
            </g>
        </symbol>

        <!-- how-we-do -->

        <symbol id="study-program" viewBox="0 0 46 48">
            <g clip-path="url(#clip0)">
                <path
                    d="M45.226 7.441l-.001-.004a.42.42 0 00-.09-.135L37.925.093a.394.394 0 00-.06-.049c-.004-.003-.01-.005-.014-.009a.45.45 0 00-.054-.029L37.781 0a.437.437 0 00-.148-.03H5.868a.426.426 0 00-.426.426v43.966c0 .028.003.055.008.083l.01.035.015.045.02.038.019.035a.457.457 0 00.049.06l.004.004 3.247 3.247a.426.426 0 00.603 0l2.946-2.946 2.946 2.946a.424.424 0 00.603 0l2.945-2.945 2.947 2.945a.426.426 0 00.602 0l2.946-2.945 2.945 2.945a.425.425 0 00.602 0l2.948-2.946 2.945 2.946a.423.423 0 00.602 0l2.946-2.945 2.947 2.945a.425.425 0 00.602 0l3.247-3.247.017-.02c.011-.014.025-.028.035-.044.01-.014.017-.03.024-.045.006-.01.011-.018.015-.028.009-.02.013-.04.018-.06l.007-.02a.441.441 0 00.008-.086V7.604a.45.45 0 00-.034-.163zM38.05 1.424l5.754 5.753H38.05V1.424zm6.356 42.76l-2.82 2.82-2.947-2.946a.426.426 0 00-.602 0l-2.945 2.946-2.945-2.946a.427.427 0 00-.603 0l-2.947 2.946-2.945-2.944v-.002a.425.425 0 00-.603 0l-2.945 2.946-2.947-2.946a.427.427 0 00-.603 0l-2.945 2.946-2.946-2.946a.427.427 0 00-.602 0l-2.947 2.946-2.82-2.82V.82h30.904v6.783c0 .235.191.426.426.426h6.782v36.154z" />
                <path
                    d="M9.47 4.851h13.955a.426.426 0 000-.852H9.471a.426.426 0 100 .852zM9.47 7.486H31.85a.426.426 0 000-.852H9.47a.426.426 0 100 .852zM9.044 9.852V23.65c0 .235.19.426.427.426h31.758a.426.426 0 00.426-.426V9.852a.426.426 0 00-.426-.426H9.471a.426.426 0 00-.427.426zm9.418.426h22.34v3.668h-22.34v-3.668zm0 4.52h22.34v3.666h-22.34v-3.666zm0 4.518h22.34v3.908h-22.34v-3.908zm-8.565-9.038h7.713v3.668H9.897v-3.668zm0 4.52h7.713v3.666H9.897v-3.666zm0 4.518h7.713v3.908H9.897v-3.908zM41.229 25.994H9.471a.426.426 0 00-.427.426v13.797a.426.426 0 10.852 0v-4.333h7.714v4.333a.426.426 0 00.852 0v-4.333h22.34v4.333a.426.426 0 00.852 0V26.42a.424.424 0 00-.425-.426zM17.61 35.03H9.897v-3.665h7.713v3.665zm0-4.518H9.897v-3.666h7.713v3.666zm23.192 4.518h-22.34v-3.665h22.34v3.665zm0-4.518h-22.34v-3.666h22.34v3.666zM3.421-.032a.426.426 0 00-.426.426V44.36a.426.426 0 00.853 0V.394a.426.426 0 00-.427-.426zM1.078-.032A.426.426 0 00.65.394V44.36a.426.426 0 00.852 0V.394a.426.426 0 00-.425-.426z" />
            </g>
        </symbol>
        <symbol id="mobile-lerning-small" viewBox="0 0 48 47">
            <g clip-path="url(#clip0)">
                <path
                    d="M44.32-.188H21.193a2.733 2.733 0 00-2.73 2.73v9.574L1.28 19.326a.559.559 0 00-.071.997l2.19 1.311V35.61a2.525 2.525 0 00-1.96 2.458v1.347c0 .31.25.56.56.56h3.923a.56.56 0 00.56-.56v-1.347c0-1.198-.842-2.2-1.963-2.457V22.304l1.732 1.037c-.053.4-.006-.696-.024 6.506 0 2.368 6.064 3.636 12.234 3.709v10.906c0 .563.173 1.087.468 1.522a2.727 2.727 0 002.261 1.204h23.127a2.73 2.73 0 002.728-2.728c0 .075-.003-2.31 0-41.917 0-1.486-1.228-2.731-2.726-2.731zM5.363 38.067v.788H2.56v-.788c0-.775.627-1.406 1.398-1.406.776 0 1.406.631 1.406 1.406zm38.957 7.999H21.193c-.555 0-1.046-.28-1.335-.707a1.599 1.599 0 01-.276-.899v-3.78h26.342v3.782c0 .876-.73 1.604-1.604 1.604zm1.604-6.505H19.58v-6.002c3.013-.034 12.243-.698 12.243-3.712-.004-4.524.008-6.36-.015-6.515l5.025-3.01a.56.56 0 00-.072-.995l-17.18-7.212V7.442h26.342v32.119zM19.022 26.132c-3.104 0-9.08.401-11.675 2.096.016-5.185-.18-4.847.458-5.287 1.613-1.187 6.225-2.016 11.217-2.016 2.177 0 11.683.598 11.683 2.61v4.694c-2.62-1.711-8.566-2.097-11.683-2.097zm.56-23.59a1.61 1.61 0 011.61-1.608h23.126c.888 0 1.606.732 1.606 1.608v3.781H19.583v-3.78zm-.56 10.552l16.288 6.837-4.036 2.415c-2.145-2.128-9.243-2.54-12.252-2.54-3.013 0-10.111.413-12.252 2.54l-4.038-2.415 16.29-6.837zM7.347 29.847c0-.905 4.01-2.596 11.675-2.596 7.67 0 11.683 1.69 11.683 2.596 0 .906-4.013 2.597-11.683 2.597-7.665 0-11.675-1.69-11.675-2.597z" />
                <path
                    d="M32.755 41.523c-1.02 0-1.85.83-1.85 1.851 0 1.02.83 1.851 1.85 1.851s1.85-.83 1.85-1.851c0-1.02-.83-1.85-1.85-1.85zm0 2.583a.733.733 0 010-1.464.732.732 0 010 1.464zM34.89 3.069h-4.27v1.119h4.27V3.069z" />
            </g>
        </symbol>
        <symbol id="open-book" viewBox="0 0 69 48">
            <path
                d="M30.4 6.912H9.94v1.532H30.4V6.912zM30.4 12.624H13.004v1.531H30.4v-1.531zM30.4 18.336H9.94v1.532H30.4v-1.532zM30.4 24.048H13.004v1.532H30.4v-1.532zM30.4 29.76H9.94v1.531H30.4V29.76zM30.4 35.472H13.004v1.532H30.4v-1.532zM58.485 6.912h-20.46v1.532h20.46V6.912zM55.421 12.624H38.025v1.531h17.396v-1.531zM58.485 18.336h-20.46v1.532h20.46v-1.532zM55.421 24.048H38.025v1.532h17.396v-1.532zM58.485 29.76h-20.46v1.531h20.46V29.76zM55.421 35.472H38.025v1.532h17.396v-1.532z" />
            <path
                d="M65.872 5.168h-2.808V.95a.766.766 0 00-.766-.766H39.4A5.924 5.924 0 0034.213 3.2 5.925 5.925 0 0029.024.184H6.128a.766.766 0 00-.766.766v4.218H2.553a.766.766 0 00-.766.766V47.05c0 .423.343.766.766.766h63.32a.766.766 0 00.765-.766V5.934a.766.766 0 00-.766-.766zM39.401 1.716h22.13V42.74H37.768c-1.054 0-2.107.444-2.788 1.02V6.128A4.398 4.398 0 0139.4 1.716zm-32.508 0h22.131a4.385 4.385 0 014.413 4.243c.001.033.004.136.01.169V43.758c-.68-.574-1.722-1.017-2.778-1.017H6.893V1.716zM3.32 6.7h2.043v36.807c0 .423.343.766.766.766h24.54c1.168 0 2.297.766 2.658 2.011H3.319V6.7zm61.787 39.584H35.1a2.768 2.768 0 012.667-2.011h24.53a.766.766 0 00.767-.766V6.7h2.042v39.584z" />
        </symbol>
        <symbol id="support" viewBox="0 0 49 48">
            <path
                d="M2.99 18.837v4.247c0 .228.104.443.284.585a16.65 16.65 0 0010.255 3.543c1.111 0 2.223-.116 3.31-.336a18.027 18.027 0 007.335 1.548c2.56 0 5.027-.524 7.335-1.548 4.636.937 9.577-.069 13.564-3.207a.745.745 0 00.284-.585v-4.247c0-.623-.31-1.191-.862-1.54l-5.801-3.264c1.269-1.61 2.214-3.903 2.379-5.87.481-3.384-2.278-6.969-6.249-6.969-1.67 0-3.257.688-4.421 1.84-.04.04-.087.074-.126.115-.036.038-.065.081-.1.12-.023.025-.043.053-.066.08C28.976 1.278 26.795 0 24.224 0c-.25 0-.494.017-.737.042-.015-.001-.028-.009-.043-.009-.138 0-.43.037-.586.082-.023.006-.04.023-.061.031a6.724 6.724 0 00-4.52 3.234 6.263 6.263 0 00-4.768-2.185c-5.862 0-8.463 6.918-3.836 12.871l-5.854 3.25c-.52.329-.83.898-.83 1.521zm28.505 6.405c-.126.061-.25.127-.377.185l-.003.001a16.505 16.505 0 01-6.941 1.509 16.556 16.556 0 01-10.012-3.342V19.29c0-.146.071-.276.153-.331l6.813-3.787c.848.72 1.93 1.248 3.053 1.248 1.08 0 2.248-.536 3.078-1.265l6.73 3.78c.125.08.196.209.196.355v4.305a16.634 16.634 0 01-2.69 1.647zm12.236-6.67a.303.303 0 01.138.265v3.881c-2.953 2.216-6.505 3.222-10.105 2.97a19.774 19.774 0 001.624-1.141.744.744 0 00.285-.585V19.29c0-.652-.328-1.253-.915-1.63l-3.576-2.009.87-.482c1.054.86 1.96 1.116 2.772 1.116.994 0 2.04-.487 2.817-1.138l6.09 3.426zm-8.907-15.89c2.071 0 3.89 1.353 4.532 3.213a5.55 5.55 0 01-3.355-1.713.743.743 0 00-1.182.126 5.524 5.524 0 01-3.822 2.64v-.005a7.306 7.306 0 00-.049-.98l-.011-.099a8.24 8.24 0 00-.182-.913c.844-1.353 2.413-2.27 4.07-2.27zm-3.99 5.783a6.965 6.965 0 004.747-2.642c1.15.943 2.61 1.515 4.052 1.584-.01 2.688-2.206 7.39-4.809 7.39-2.005 0-3.718-2.868-4.358-4.857.163-.511.281-1.003.368-1.475zm.151 5.594l-1.329.736-1.341-.754c.497-.62.953-1.339 1.344-2.12.375.79.826 1.515 1.326 2.138zM28.98 9.697c-.717 2.14-2.557 5.235-4.8 5.235-2.612 0-4.838-4.296-5.262-7.044.113-.028 3.644.19 6.074-3.001 1.234 1.032 2.898 1.715 4.516 1.782.02.97-.216 2.11-.528 3.028zm-4.756-8.21c4.17 0 4.964 3.59 5.029 3.664a6.193 6.193 0 01-3.845-1.914.744.744 0 00-1.184.13 6.112 6.112 0 01-5.37 3.032c.204-2.733 2.394-4.911 5.37-4.911zm-5.532 10.42c.386.772.844 1.51 1.369 2.158l-1.313.73-1.36-.765c.515-.658.953-1.393 1.304-2.123zm-5.183-9.225c1.687 0 3.233.856 4.094 2.271-.043.15-.16.747-.175.822a5.505 5.505 0 01-2.731-1.594.743.743 0 00-1.183.13 5.568 5.568 0 01-4.766 2.722c.237-2.44 2.277-4.35 4.761-4.35zM8.814 8.516a7.061 7.061 0 005.464-2.693 6.937 6.937 0 003.083 1.441c.043.862.268 1.91.525 2.683-.41 1.26-1.198 2.76-2.176 3.758-.006.006-.014.009-.02.015-.612.645-1.482 1.078-2.166 1.078-2.391 0-4.262-3.762-4.71-6.282zM4.477 18.837c0-.113.05-.209.101-.243l6.174-3.426c.37.309.456.344.53.398.727.484 1.393.724 2.301.724.968 0 1.849-.41 2.624-1.041.043-.034.09-.067.132-.102l.881.495-3.67 2.041a1.905 1.905 0 00-.876 1.607v4.672c0 .228.105.443.285.584.475.373 1.091.809 1.624 1.142-3.651.25-7.204-.792-10.106-2.97v-3.881z" />
            <path
                d="M46.888 31.171a3.092 3.092 0 00-3.01-.165l-9.18 4.435a3.166 3.166 0 00-3.16-3.108l-5.264.002c-2.595-2.256-5.912-3.638-8.928-3.71-2.974-.07-5.643-.09-6.888-.096v-1.503H0V44.3h10.458v-2.069C13.325 43.878 20.866 48 24.445 48c.08 0 .16-.002.236-.007 6.294-.353 21.136-10.797 22.115-11.49a3.119 3.119 0 001.551-2.694 3.096 3.096 0 00-1.46-2.638zM8.97 42.813H1.488v-14.3H8.97v14.3zm37.06-7.586a.651.651 0 00-.065.041c-.154.109-15.421 10.907-21.367 11.24a3.651 3.651 0 01-.18.005c-3.14 0-10.792-4.129-13.96-6.001V30.017c1.24.005 3.894.025 6.853.095 2.755.066 5.814 1.382 8.183 3.519l.212.191h5.832a1.68 1.68 0 011.678 1.677 1.68 1.68 0 01-1.678 1.679H20.825v1.487h10.713c1.027 0 1.932-.499 2.51-1.259l10.476-5.06a1.593 1.593 0 011.574.086c.484.303.762.805.762 1.377a1.63 1.63 0 01-.83 1.418zM24.917 18.238H23.43v1.38h1.487v-1.38zM24.917 20.988H23.43v1.38h1.487v-1.38zM24.917 23.74H23.43v1.379h1.487v-1.38z" />
        </symbol>
        <symbol id="female-student-small" viewBox="0 0 40 48">
            <g clip-path="url(#clip0)">
                <path
                    d="M-.154 47.638h40.177c.199-4.582-.13-12.184-2.946-15.802l-.102-.13-6.156-3.09c.134-.451.2-.864.226-1.168.03-.364-.02-.707-.15-1.017-1.015-2.43-3.164-3.708-4.346-4.253.36-.726.592-1.505.704-2.301a1.975 1.975 0 001.384-1.426l.719-2.92a1.975 1.975 0 00-.227-1.503 1.969 1.969 0 00-.44-.501c2.025-4.602-1.368-8.94-1.553-9.17-3.674-3.972-8.316-3.23-8.562-3.185C11.875 2.575 9.29 7.709 10.75 13.73a1.977 1.977 0 00-.453 1.8l.722 2.923c.175.702.709 1.23 1.373 1.421a7.519 7.519 0 001.729 3.84v2.314c-9.614 4.923-3.522 1.782-11.227 5.68-.015.072-3.615 3.898-3.08 15.237l.033.693zm38.781-1.454h-6.612v-2.778l4.373-10.012c2.191 3.637 2.272 10.58 2.239 12.79zm-9.025-18.86c-.255 2.932-1.862 2.046-2.855 4.304-.78-.858-1.015-1.887-.805-2.989.379-2.023-.856-2.623-.55-4.749l.046-.048v-.007c.026-.03.27-.32.34-.411 2.616 1.14 3.876 3.261 3.824 3.9zm-14.034-2.303a7.449 7.449 0 008.362.112c.168 1.67.82 2.005.589 3.235a5.389 5.389 0 00-.08.674l-4.504 5.075-5.757-6.49 1.39-.725v-1.881zm-1.81-6.212v-2.814-4.944c.7-1.296 1.656-2.236 2.843-2.8 3.18 1.8 6.84 4.485 9.296 7.188-.003 3.441.01 3.45-.013 3.733l-.002.018c-.192 3.126-2.761 5.716-6.057 5.716-3.203 0-5.863-2.515-6.055-5.747a4.102 4.102 0 01-.012-.35zm-.897 9.52l7.074 7.975 4.75-5.353c.108.313.26.608.434.894l-5.184 6.483-7.73-9.669.656-.33zm14.484-10.69v-2.247l.54-.62c.03 1.139.153-.204-.54 2.867zM18.842 2.6c.288.018 4.148-.587 7.199 2.707.12.15 2.604 3.35 1.606 6.851-.342-1.558-.937-3.554-1.878-4.506l-1.028 1.024c.929.94 1.539 3.806 1.771 5.29-4.26-4.458-9.756-7.28-9.832-7.327-.275.171-2.601.613-4.29 3.897l-.08.156v2.412l-.214.002c-1.073-5.182.982-9.298 6.746-10.506zm-6.898 12.002l.365 1.481v1.557l-.607-2.46c-.09-.366.182-.505.242-.578zm-1.065 14.722l9.056 11.326 6.127-7.664c.667.597.987.681 2.4 1.408l-.476-1.617c-.121-.41.358-1.069.647-1.371a4.38 4.38 0 001.586-1.466l5 2.51-4.653 10.65v3.083H9.303V43.1L4.649 32.452l6.23-3.127zM3.48 33.397l4.374 10.01v2.777H1.242c-.033-2.21.049-9.15 2.238-12.787z" />
            </g>
        </symbol>
        <symbol id="audio-book" viewBox="0 0 58 48">
            <path
                d="M4.572 44.179h18.344a5.605 5.605 0 005.07 3.173h1.16a5.603 5.603 0 005.07-3.173h18.356A3.432 3.432 0 0056 40.75V7.893a3.432 3.432 0 00-3.428-3.428H50.72V2.933A2.288 2.288 0 0048.434.648H8.698a2.288 2.288 0 00-2.286 2.285v1.532h-1.84a3.432 3.432 0 00-3.429 3.428V40.75a3.432 3.432 0 003.429 3.429zm43.86-7.052H29.714V10.57c4.327.566 7.681 4.267 7.681 8.746v1.03l-.27-.06a1.142 1.142 0 00-1.362.87l-1.82 8.28a1.142 1.142 0 00.87 1.36l3.933.867c.203.043.41.065.616.065 1.383 0 2.56-.946 2.861-2.303l1.053-4.788a2.93 2.93 0 00-2.227-3.486l-1.368-.301v-1.534c0-5.741-4.376-10.48-9.966-11.056V2.933h18.72l-.003 34.194zM37.75 22.765l2.807.618c.35.078.565.412.488.762l-1.053 4.787c-.076.346-.458.561-.76.497l-2.811-.62 1.33-6.044zM8.698 2.933h18.73v5.325c-5.596.572-9.977 5.313-9.977 11.058v1.533l-1.37.303a2.908 2.908 0 00-1.834 1.28 2.895 2.895 0 00-.39 2.203l1.05 4.783a2.937 2.937 0 003.488 2.243l3.916-.865a1.142 1.142 0 00.869-1.36l-1.82-8.279a1.14 1.14 0 00-1.362-.87l-.261.057v-1.028c0-4.482 3.36-8.187 7.692-8.748v26.56H8.698V2.932zm10.676 19.833l1.33 6.044-2.794.617a.649.649 0 01-.768-.491l-1.052-4.794a.625.625 0 01.082-.478.64.64 0 01.402-.28l2.8-.618zM3.43 7.893c0-.63.512-1.143 1.143-1.143h1.84v30.377a2.288 2.288 0 002.286 2.286h39.736a2.288 2.288 0 002.286-2.285V6.75h1.852c.63 0 1.142.513 1.142 1.143V40.75c0 .63-.512 1.143-1.142 1.143H33.44c-.502 0-.945.328-1.093.808a3.332 3.332 0 01-3.202 2.366h-1.158a3.343 3.343 0 01-3.207-2.38 1.143 1.143 0 00-1.088-.794H4.572c-.63 0-1.143-.513-1.143-1.143V7.893z" />
        </symbol>
        <symbol id="arrow-left" viewBox="0 0 27 16">
            <path
                d="M26 7a1 1 0 110 2V7zM.293 8.707a1 1 0 010-1.414L6.657.929A1 1 0 018.07 2.343L2.414 8l5.657 5.657a1 1 0 11-1.414 1.414L.293 8.707zM26 9H1V7h25v2z"
                fill="#FF6B09" />
        </symbol>
        <symbol id="arrow-right" viewBox="0 0 27 16">
            <path
                d="M1 7a1 1 0 000 2V7zm25.707 1.707a1 1 0 000-1.414L20.343.929a1 1 0 10-1.414 1.414L24.586 8l-5.657 5.657a1 1 0 001.414 1.414l6.364-6.364zM1 9h25V7H1v2z"
                fill="#FF6B09" />
        </symbol>

        <symbol id="vector" viewBox="0 0 2 32">
            <path stroke="var(--color1, #b9b9b9)" stroke-width="1.1" d="M1 0v32" />
        </symbol>
        <symbol id="icon-logo_fire" viewBox="0 0 23 32">
           <path fill="#ff6b09" style="fill: var(--color1, #ff6b09)" d="M21.908 16.593c-0.284-0.635-0.675-1.261-1.247-1.983-1.442-1.813-1.882-5.857-1.887-5.896-0.020-0.194-0.156-0.354-0.337-0.412-0.186-0.058-0.386-0.005-0.518 0.141-1.721 1.925-0.997 4.897-0.606 6.085 0.108 0.325 0.225 0.708 0.308 1.096 0.636 3.137-0.592 4.558-0.88 4.844-0.279 0.078-0.469 0.039-0.645-0.15-0.606-0.664-0.807-2.841-0.523-5.678 0.059-0.577 0.044-1.096-0.039-1.581-0.598-3.486-2.791-5.722-3.349-6.507-1.535-2.269-1.691-6.046-1.696-6.080-0.005-0.179-0.108-0.339-0.269-0.417-0.156-0.078-0.347-0.068-0.494 0.034-2.562 1.741-2.342 5.935-1.985 8.276 0.083 0.543 0.244 1.096 0.523 1.794 0.992 2.497-0.196 5.721-0.205 5.75s-0.020 0.053-0.024 0.082c-0.152 0.795-0.406 1.27-0.689 1.27-0.029 0-0.059-0.005-0.093-0.015-0.347-0.073-0.528-0.441-0.533-0.761-0.020-4.136-4.17-5.527-4.214-5.542-0.186-0.058-0.391-0.005-0.518 0.146-0.132 0.15-0.156 0.359-0.068 0.533 0.049 0.102 0.205 0.548 0.098 2.124-0.093 1.416-0.352 2.817-0.768 4.16-0.988 3.219-0.831 6.269-0.821 6.415 0.759 8.257 12.635 9.704 19.683 5.052 0.772-0.509 1.403-1.091 1.868-1.731 2.601-3.588 1.071-8.461-0.068-11.050zM3.844 24.481c0.015 0.267-0.191 0.495-0.46 0.509h-0.029c-0.259 0-0.474-0.199-0.489-0.456-0.044-0.708-0.034-1.45 0.020-2.255 0.020-0.267 0.254-0.465 0.523-0.451 0.269 0.019 0.474 0.252 0.455 0.519-0.054 0.766-0.064 1.464-0.020 2.133zM4.084 20.185c-0.029 0.247-0.24 0.427-0.484 0.427-0.020 0-0.039 0-0.064-0.005-0.264-0.034-0.455-0.271-0.425-0.538l0.235-1.872c0.034-0.262 0.274-0.451 0.548-0.422 0.269 0.034 0.46 0.276 0.425 0.543l-0.235 1.867z"></path>
            <path fill="#ff6b09" style="fill: var(--color1, #ff6b09)" d="M18.601 6.633c-0.267-0.041-0.45-0.288-0.408-0.553 0.030-0.197 0.207-1.205 0.686-1.713 0.185-0.196 0.493-0.206 0.691-0.022s0.207 0.49 0.022 0.685c-0.203 0.215-0.376 0.829-0.433 1.197-0.041 0.262-0.287 0.445-0.558 0.405z"></path>
            <path fill="#ff6b09" style="fill: var(--color1, #ff6b09)" d="M0.778 9.048c-0.094-0.361-0.326-0.955-0.549-1.149-0.203-0.177-0.223-0.483-0.045-0.684s0.486-0.222 0.69-0.045c0.527 0.458 0.802 1.445 0.852 1.638 0.067 0.259-0.091 0.523-0.352 0.59-0.267 0.067-0.529-0.094-0.595-0.349z"></path>
         </symbol>
    </defs>
</svg>